<svg id="Layer_1" data-name="Layer 1" xmlns="http://www.w3.org/2000/svg" viewBox="0 0 354.56 117.98"><defs><style>.cls-1{fill:#fff;}</style></defs><title>Brandeis_logo_stacked_white</title><path class="cls-1" d="M42.21,118.52c0-1.78-.36-2.27-3-2.6v-.74h7.29v.74c-2.5.33-2.92.82-2.92,2.6v10.59c0,5.83-3.37,9.07-8.65,9.07-5.86,0-8.58-3.47-8.58-9.07V118.52c0-1.78-.42-2.27-2.69-2.6v-.74h8.58v.74c-2.27.33-2.66.82-2.66,2.6v10.27c0,5.18,1.95,7.93,6.06,7.93,4.38,0,6.52-2.91,6.52-7.93V118.52Z" transform="translate(-20 -20.2)"/><path class="cls-1" d="M83.55,118.52c0-1.78-.32-2.27-2.91-2.6v-.74h7.19v.74c-2.43.33-2.88.82-2.88,2.6v19.34H83L70.59,118.19v16.36c0,1.78.33,2.27,2.92,2.6v.71H66.29v-.71c2.42-.33,2.88-.82,2.88-2.6v-16c0-1.78-.46-2.27-2.88-2.6v-.74h6.64l10.62,17.11V118.52Z" transform="translate(-20 -20.2)"/><path class="cls-1" d="M113.58,134.55c0,1.78.39,2.27,2.65,2.6v.71h-8.58v-.71c2.27-.33,2.69-.82,2.69-2.6v-16c0-1.78-.42-2.27-2.69-2.6v-.74h8.58v.74c-2.26.33-2.65.82-2.65,2.6v16Z" transform="translate(-20 -20.2)"/><path class="cls-1" d="M138.35,117.87c-.42-1.1-.81-1.46-2.69-2v-.74h8.68v.74c-2.36.33-2.62,1.27-2,2.92l5.45,15.23h.06l4.89-14.74c.65-2,.46-3.08-2.14-3.41v-.74h7.29v.74c-2.17.33-2.78.62-3.24,2L147.68,138H145.8l-7.45-20.15Z" transform="translate(-20 -20.2)"/><path class="cls-1" d="M182.26,125.84h2.92c2,0,3.2-.68,3.49-3.27h.88v7.77h-.88c-.29-2.59-1.49-3.27-3.49-3.27h-2.92v9.59h6c2.27,0,3.89-1.43,4.21-4h.88l-.33,5.25H176.33v-.71c2.27-.33,2.69-.82,2.69-2.6v-16c0-1.78-.42-2.27-2.69-2.6v-.74h16.36l.16,5.28H192c-.33-2.62-1.78-4-4-4h-5.67v9.43Z" transform="translate(-20 -20.2)"/><path class="cls-1" d="M224.87,127.52l4.76,6.68a8.42,8.42,0,0,0,3.47,3v.71h-4.7a13.66,13.66,0,0,1-2.59-3.08l-4.5-6.87h-2.2v6.64c0,1.78.38,2.27,2.65,2.6v.71h-8.58v-.71c2.26-.33,2.69-.82,2.69-2.6v-16c0-1.78-.43-2.27-2.69-2.6v-.74h9.65c4.86,0,7.45,2.49,7.45,6.06,0,2.62-1.26,5.25-5.41,6.28Zm-3.5-.84c4.44,0,5.51-2.27,5.51-5.12,0-2.59-1.07-5.15-4.86-5.15h-2.91v10.27Z" transform="translate(-20 -20.2)"/><path class="cls-1" d="M267,131.54c0,4.15-3.11,6.64-7.45,6.64a14.7,14.7,0,0,1-6.64-1.62l-.33-5.73h.88c.48,5.08,3.5,6.06,5.93,6.06a4,4,0,0,0,4.27-4.31c0-2.72-2.49-4.05-4.92-5.09-3.27-1.39-5.93-3.21-5.93-6.67s2.69-6,7.13-6a13,13,0,0,1,6,1.45l.33,5.45h-.88c-.65-3.89-2.46-5.61-5.25-5.61-2.33,0-3.92,1.14-3.92,3.56s1.91,3.76,4.24,4.7c3.24,1.3,6.55,3.41,6.55,7.13Z" transform="translate(-20 -20.2)"/><path class="cls-1" d="M292.81,134.55c0,1.78.38,2.27,2.65,2.6v.71h-8.58v-.71c2.27-.33,2.69-.82,2.69-2.6v-16c0-1.78-.42-2.27-2.69-2.6v-.74h8.58v.74c-2.27.33-2.65.82-2.65,2.6v16Z" transform="translate(-20 -20.2)"/><path class="cls-1" d="M332.68,115.18l.16,5.28H332c-.32-2.62-1.78-4-4-4h-2.26v18.14c0,1.78.38,2.27,2.65,2.6v.71h-8.58v-.71c2.26-.33,2.69-.82,2.69-2.6V116.41h-2.27c-2.27,0-3.73,1.43-4.05,4h-.91l.16-5.28Z" transform="translate(-20 -20.2)"/><path class="cls-1" d="M354.43,117.87a3.82,3.82,0,0,0-2.33-2v-.74H360v.74c-2.36.33-2,1.37-1.23,2.92l4.6,8.91h.07l4.21-8.75c.75-1.58.49-2.75-1.82-3.08v-.74h6.65v.74c-1.59.33-2.3.65-2.92,2l-5.18,10.95v5.73c0,1.78.39,2.27,2.65,2.6v.71h-8.58v-.71c2.27-.33,2.69-.82,2.69-2.6v-4.31l-6.74-12.37Z" transform="translate(-20 -20.2)"/><path class="cls-1" d="M75.32,95.49V92.65l6.87-1.23V51.85l-6.3,0V49l18.37-4.5.16,8C96.08,51.08,100.3,47,104.1,46c4.18-1.13,7.64.59,8.63,4.06a16,16,0,0,1,.44,5.21c0,.17-12.31,5.09-12.31,5.09l.06-.38c.38-2.84-.08-4.8-1.3-5.4a1.76,1.76,0,0,0-.75-.15c-1.47,0-3.7,1.35-4.45,1.85l-.1.06,0,1V91.42L101,92.65v2.84Z" transform="translate(-20 -20.2)"/><path class="cls-1" d="M323,37.59a7.61,7.61,0,0,1-7.61-7.6,7.71,7.71,0,0,1,2.23-5.42,7.5,7.5,0,0,1,10.75,0A7.7,7.7,0,0,1,330.57,30a7.6,7.6,0,0,1-7.59,7.6m-12.8,57.9V92.65l6.75-1.23V51.84l-6.31,0V49L329,44.58V91.42l6.49,1.23v2.84Z" transform="translate(-20 -20.2)"/><path class="cls-1" d="M355.9,96.46A37.73,37.73,0,0,1,340.77,93l-.12-.05-1-13.47H343l0,.19c1.41,8.12,5.69,12.41,12.38,12.41A7.12,7.12,0,0,0,363,84.6a6.72,6.72,0,0,0-2.51-5.27c-1.54-1.38-3.87-2.68-7.53-4.22-8.69-3.62-13.72-7.35-13.72-15.73a12.36,12.36,0,0,1,4.56-9.88c3.12-2.57,7.66-3.93,13.12-3.93a36.32,36.32,0,0,1,14.17,3l.12.06,1,12.89h-3.34l0-.18c-1.82-7.28-6.15-11.46-11.9-11.46-3.39,0-7,2-7,6.37,0,5,4.56,6.7,8.58,8.22,4.34,1.74,8.76,3.73,11.78,6.51a12.94,12.94,0,0,1,4.37,10.19,13.85,13.85,0,0,1-1.47,6.34,14.37,14.37,0,0,1-4,4.81,21.41,21.41,0,0,1-13.18,4.11" transform="translate(-20 -20.2)"/><path class="cls-1" d="M152.32,90.19h-8l0-31.28a12.9,12.9,0,0,0-3.93-9.82c-2.53-2.29-6.18-3.51-10.54-3.51-4.67,0-10.54,1.24-13.73,3.16l-.18.11L117.6,52l.2-.09c4.73-1.79,9.56-1.15,11.63.74s2.91,5,2.91,9.64l0,4.22c-2.67,1-7.14,2.52-11.31,4.09-6.31,2.37-15,5.29-14.91,14A12.51,12.51,0,0,0,109.56,93c4.63,4.91,12.53,4.61,18.69-.41,1.24-1,2.55-2.25,4-3.69.21,5,2.83,7.58,7.6,7.58s7.81-1.31,12.4-3.91l.12-.06,0-2.3Zm-28.52-2c-4.38,0-6-5-5.3-8.54.8-4.07,4.43-5.2,7.23-6.41,2.43-1,5.13-2.21,6.54-2.79l0,3.88,0,10.75c-3,2.13-5.14,3.11-8.38,3.11Z" transform="translate(-20 -20.2)"/><path class="cls-1" d="M188.25,95.49V60.83c0-4.65-2.5-7.32-6.84-7.32a24.17,24.17,0,0,0-12.11,3.55V91.42l6.88,1.23v2.84h-19V51.83H150.9V49L169,44.52l.3,8.69c6.94-5.33,13.11-7.65,18.55-7.65a13.6,13.6,0,0,1,4.31.67A10.82,10.82,0,0,1,198,50.8a17.73,17.73,0,0,1,2.35,9.55V91.42l6.88,1.23v2.84Z" transform="translate(-20 -20.2)"/><path class="cls-1" d="M48,91.16c8.53,0,12.86-4.82,12.86-14.32,0-7.93-4.17-13-11.76-14.21a43.09,43.09,0,0,0-6.95-.56h0l-1.82-4h.39a36.15,36.15,0,0,0,7.75-.61C55,56.18,58,52.15,58,44.83c0-8.61-4.22-13.35-11.89-13.35H39V91.16ZM20,95.49V92.65l6.88-1.23V31.22L20,30V27.14H48c7,0,12.81,1.61,16.75,4.66a14.71,14.71,0,0,1,5.78,12.06A14.91,14.91,0,0,1,66.61,54a20.18,20.18,0,0,1-9.35,5.68c5.51,1.44,9.7,3.81,12.45,7.06a16,16,0,0,1,3.75,10.6,16.55,16.55,0,0,1-5.78,13.15c-3.92,3.28-9.71,5-16.75,5Z" transform="translate(-20 -20.2)"/><path class="cls-1" d="M255.09,91.42V62h0V20.2L236.66,26v3.12L243,28.6V48.28a19.47,19.47,0,0,0-10.12-2.71c-9.91,0-24.46,7.43-24.46,25.45,0,12.27,6,25.44,20.18,25.44a18.18,18.18,0,0,0,12.88-5.37l.12-.11-1.21-3-.22.13a10.93,10.93,0,0,1-5.35,1.24c-7.88,0-13.6-5.93-14.07-18.39-.52-14.52,5.39-21.1,12.61-21.1a8.43,8.43,0,0,1,6,2.3c2.16,2.14,3.62,5.69,3.62,10.57l0,.31v32.4h19V92.65l-6.88-1.23Z" transform="translate(-20 -20.2)"/><path class="cls-1" d="M288,49.9a7,7,0,0,1,5.84,2.71c1.72,2.23,2.2,5.61,1.25,9.93H275.8c1.34-8.15,5.65-12.64,12.18-12.64M304.2,81c-2.49,3.88-7.35,6.3-12.84,6.3a14.72,14.72,0,0,1-10.88-4.43c-3.43-3.55-5.17-8.9-5-15.48h31.18l0-.19c1-6.8-.15-11.93-3.28-15.68s-8.34-5.92-14.93-5.92a25,25,0,0,0-17,6.73,24.06,24.06,0,0,0-5.68,8.14,27.84,27.84,0,0,0-2.17,11.06,26.13,26.13,0,0,0,6.2,17.42c4.35,4.93,10.46,7.54,17.67,7.54A19.64,19.64,0,0,0,300,92a23,23,0,0,0,6.59-9.09l-2.39-2,0,0Z" transform="translate(-20 -20.2)"/></svg>